HIERARCHY
ROOT hip
{
  OFFSET 0.00112043 5.09927 -9.65472
  CHANNELS 6 Xposition Yposition Zposition Zrotation Xrotation Yrotation
  JOINT abdomen
  {
    OFFSET 0 -1.186 -1.5018
    CHANNELS 3 Zrotation Xrotation Yrotation
    JOINT abdomen2
    {
      OFFSET 0 9.964 0.2134
      CHANNELS 3 Zrotation Xrotation Yrotation
      JOINT chest
      {
        OFFSET 0 13.134 -3.2573
        CHANNELS 3 Zrotation Xrotation Yrotation
        JOINT neck
        {
          OFFSET 0 20.686 -1.6905
          CHANNELS 3 Zrotation Xrotation Yrotation
          JOINT head
          {
            OFFSET 0 7.238 -0.1237
            CHANNELS 3 Zrotation Xrotation Yrotation
            End Site
            {
              OFFSET 0 0 0
            }
          }
        }
        JOINT lCollar
        {
          OFFSET 1.7069 20.075 5.0056
          CHANNELS 3 Zrotation Xrotation Yrotation
          JOINT lShldr
          {
            OFFSET 13.6458 -0.047 -4.849
            CHANNELS 3 Zrotation Xrotation Yrotation
            JOINT lForeArm
            {
              OFFSET 28.3255 -0.9759 2.2888
              CHANNELS 3 Zrotation Xrotation Yrotation
              JOINT lHand
              {
                OFFSET 22.1583 -0.53 10.8316
                CHANNELS 3 Zrotation Xrotation Yrotation
                JOINT lThumb1
                {
                  OFFSET 0.786 0.112 2.5817
                  CHANNELS 3 Zrotation Xrotation Yrotation
                  JOINT lThumb2
                  {
                    OFFSET 0.3601 -0.878 4.2331
                    CHANNELS 3 Zrotation Xrotation Yrotation
                    JOINT lThumb2_End
                    {
                      OFFSET 1.8127 -1.216 2.2227
                      CHANNELS 3 Zrotation Xrotation Yrotation
                      End Site
                      {
                        OFFSET 0.0181 -0.0122 0.0222
                      }
                    }
                  }
                }
                JOINT lCarpal1
                {
                  OFFSET 0.9571 1.114 1.7695
                  CHANNELS 3 Zrotation Xrotation Yrotation
                  JOINT lIndex1
                  {
                    OFFSET 4.1246 0.487 4.1451
                    CHANNELS 3 Zrotation Xrotation Yrotation
                    JOINT lIndex2
                    {
                      OFFSET 3.4052 -1.454 2.7682
                      CHANNELS 3 Zrotation Xrotation Yrotation
                      JOINT lIndex2_End
                      {
                        OFFSET 1.4531 -1.795 1.2713
                        CHANNELS 3 Zrotation Xrotation Yrotation
                        End Site
                        {
                          OFFSET 0.0145 -0.0179 0.0127
                        }
                      }
                    }
                  }
                  JOINT lMid1
                  {
                    OFFSET 5.6954 0.21 2.1184
                    CHANNELS 3 Zrotation Xrotation Yrotation
                    JOINT lMid2
                    {
                      OFFSET 3.9766 -1.54 2.3863
                      CHANNELS 3 Zrotation Xrotation Yrotation
                      JOINT lMid2_End
                      {
                        OFFSET 1.4042 -1.926 1.125
                        CHANNELS 3 Zrotation Xrotation Yrotation
                        End Site
                        {
                          OFFSET 0.014 -0.0193 0.0113
                        }
                      }
                    }
                  }
                }
                JOINT lCarpal2
                {
                  OFFSET 2.0956 0.66 -0.3894
                  CHANNELS 3 Zrotation Xrotation Yrotation
                  JOINT lRing1
                  {
                    OFFSET 5.0395 -0.09 2.4971
                    CHANNELS 3 Zrotation Xrotation Yrotation
                    JOINT lRing2
                    {
                      OFFSET 3.7921 -1.552 1.4806
                      CHANNELS 3 Zrotation Xrotation Yrotation
                      JOINT lRing2_End
                      {
                        OFFSET 1.4655 -1.808 0.9609
                        CHANNELS 3 Zrotation Xrotation Yrotation
                        End Site
                        {
                          OFFSET 0.0147 -0.0181 0.0096
                        }
                      }
                    }
                  }
                  JOINT lPinky1
                  {
                    OFFSET 4.9141 -1.269 0.3591
                    CHANNELS 3 Zrotation Xrotation Yrotation
                    JOINT lPinky2
                    {
                      OFFSET 3.1477 -1.685 0.8462
                      CHANNELS 3 Zrotation Xrotation Yrotation
                      JOINT lPinky2_End
                      {
                        OFFSET 0.8055 -1.585 0.7955
                        CHANNELS 3 Zrotation Xrotation Yrotation
                        End Site
                        {
                          OFFSET 0.0081 -0.0158 0.008
                        }
                      }
                    }
                  }
                }
              }
            }
          }
        }
        JOINT rCollar
        {
          OFFSET -1.7069 20.075 5.0056
          CHANNELS 3 Zrotation Xrotation Yrotation
          JOINT rShldr
          {
            OFFSET -13.6458 -0.047 -4.849
            CHANNELS 3 Zrotation Xrotation Yrotation
            JOINT rForeArm
            {
              OFFSET -28.3255 -0.9759 2.2888
              CHANNELS 3 Zrotation Xrotation Yrotation
              JOINT rHand
              {
                OFFSET -22.1583 -0.53 10.8316
                CHANNELS 3 Zrotation Xrotation Yrotation
                JOINT rThumb1
                {
                  OFFSET -0.786 0.112 2.5817
                  CHANNELS 3 Zrotation Xrotation Yrotation
                  JOINT rThumb2
                  {
                    OFFSET -0.3601 -0.878 4.2331
                    CHANNELS 3 Zrotation Xrotation Yrotation
                    JOINT rThumb2_End
                    {
                      OFFSET -1.8127 -1.216 2.2227
                      CHANNELS 3 Zrotation Xrotation Yrotation
                      End Site
                      {
                        OFFSET -0.0181 -0.0122 0.0222
                      }
                    }
                  }
                }
                JOINT rCarpal1
                {
                  OFFSET -0.9571 1.114 1.7695
                  CHANNELS 3 Zrotation Xrotation Yrotation
                  JOINT rIndex1
                  {
                    OFFSET -4.1246 0.487 4.1451
                    CHANNELS 3 Zrotation Xrotation Yrotation
                    JOINT rIndex2
                    {
                      OFFSET -3.4052 -1.454 2.7682
                      CHANNELS 3 Zrotation Xrotation Yrotation
                      JOINT rIndex2_End
                      {
                        OFFSET -1.4531 -1.795 1.2713
                        CHANNELS 3 Zrotation Xrotation Yrotation
                        End Site
                        {
                          OFFSET -0.0145 -0.018 0.0127
                        }
                      }
                    }
                  }
                  JOINT rMid1
                  {
                    OFFSET -5.6954 0.21 2.1184
                    CHANNELS 3 Zrotation Xrotation Yrotation
                    JOINT rMid2
                    {
                      OFFSET -3.9766 -1.54 2.3863
                      CHANNELS 3 Zrotation Xrotation Yrotation
                      JOINT rMid2_End
                      {
                        OFFSET -1.4042 -1.926 1.125
                        CHANNELS 3 Zrotation Xrotation Yrotation
                        End Site
                        {
                          OFFSET -0.014 -0.0193 0.0113
                        }
                      }
                    }
                  }
                }
                JOINT rCarpal2
                {
                  OFFSET -2.0956 0.66 -0.3894
                  CHANNELS 3 Zrotation Xrotation Yrotation
                  JOINT rRing1
                  {
                    OFFSET -5.0395 -0.09 2.4971
                    CHANNELS 3 Zrotation Xrotation Yrotation
                    JOINT rRing2
                    {
                      OFFSET -3.7921 -1.552 1.4806
                      CHANNELS 3 Zrotation Xrotation Yrotation
                      JOINT rRing2_End
                      {
                        OFFSET -1.4655 -1.808 0.9609
                        CHANNELS 3 Zrotation Xrotation Yrotation
                        End Site
                        {
                          OFFSET -0.0147 -0.0181 0.0096
                        }
                      }
                    }
                  }
                  JOINT rPinky1
                  {
                    OFFSET -4.9141 -1.269 0.3592
                    CHANNELS 3 Zrotation Xrotation Yrotation
                    JOINT rPinky2
                    {
                      OFFSET -3.1477 -1.685 0.8462
                      CHANNELS 3 Zrotation Xrotation Yrotation
                      JOINT rPinky2_End
                      {
                        OFFSET -0.8055 -1.585 0.7955
                        CHANNELS 3 Zrotation Xrotation Yrotation
                        End Site
                        {
                          OFFSET -0.0081 -0.0158 0.008
                        }
                      }
                    }
                  }
                }
              }
            }
          }
        }
      }
    }
  }
  JOINT lThigh
  {
    OFFSET 8.367 -8.2066 0.5982
    CHANNELS 3 Zrotation Xrotation Yrotation
    JOINT lShin
    {
      OFFSET 2.1923 -43.463 -0.4932
      CHANNELS 3 Zrotation Xrotation Yrotation
      JOINT lFoot
      {
        OFFSET 0.7333 -45.8593 -2.6451
        CHANNELS 3 Zrotation Xrotation Yrotation
        End Site
        {
          OFFSET 2.6618 -4.2699 12.3931
        }
      }
    }
  }
  JOINT rThigh
  {
    OFFSET -8.367 -8.2066 0.5982
    CHANNELS 3 Zrotation Xrotation Yrotation
    JOINT rShin
    {
      OFFSET -2.1923 -43.463 -0.4931
      CHANNELS 3 Zrotation Xrotation Yrotation
      JOINT rFoot
      {
        OFFSET -0.7333 -45.8593 -2.6451
        CHANNELS 3 Zrotation Xrotation Yrotation
        End Site
        {
          OFFSET -2.6618 -4.2699 12.3931
        }
      }
    }
  }
}
MOTION
Frames:	4
Frame Time:	0.0333333
0 91.7903 2.51682 0 0 -0 0 0 -0 0 0 -0 0 0 -0 0 0 -0 0 0 -0 0 0 -0 1.66051 0.0835086 5.75766 -0.0175111 0.895433 15.7816 7.95139e-016 -1.98785e-016 -0 5.46658e-016 -3.97569e-016 -0 5.96354e-016 0 -0 3.97569e-016 1.98785e-016 9.54166e-015 1.49089e-016 -3.97569e-016 -0 6.4605e-016 0 3.18055e-015 5.96354e-016 0 3.18055e-015 8.94531e-016 -1.98785e-016 6.36111e-015 6.4605e-016 0 3.18055e-015 5.96354e-016 0 3.18055e-015 8.94531e-016 -1.98785e-016 6.36111e-015 1.49089e-016 -3.97569e-016 -0 6.4605e-016 0 3.18055e-015 5.96354e-016 0 3.18055e-015 8.94531e-016 -1.98785e-016 6.36111e-015 6.4605e-016 0 3.18055e-015 5.96354e-016 0 3.18055e-015 8.94531e-016 -1.98785e-016 6.36111e-015 0 0 -0 -1.4496 0.0636048 -5.0245 -1.74811 1.20616 -16.8394 -1.19271e-015 1.98785e-016 -3.18055e-015 -3.97569e-016 1.98785e-016 -3.18055e-015 -2.98177e-016 1.98785e-016 -3.18055e-015 -2.98177e-016 3.97569e-016 -0 4.96962e-016 0 -6.36111e-015 -9.93923e-017 3.97569e-016 -0 -8.94531e-016 5.96354e-016 -0 -3.97569e-016 3.97569e-016 -0 -9.93923e-017 3.97569e-016 -0 -8.94531e-016 5.96354e-016 -0 -3.97569e-016 3.97569e-016 -0 4.96962e-016 0 -6.36111e-015 -9.93923e-017 3.97569e-016 -0 -8.94531e-016 5.96354e-016 -0 -3.97569e-016 3.97569e-016 -0 -9.93923e-017 3.97569e-016 -0 -8.94531e-016 5.96354e-016 -0 -3.97569e-016 3.97569e-016 -0 -4.66111 -0.998717 0.12318 0.00986924 1.54847 0.176523 4.65186 -0.572283 -0.254274 4.66111 -0.998765 -0.123176 -0.00986867 1.54869 -0.176537 -4.65186 -0.572453 0.25427 
32.3178 34.1481 -9.53838 -59.2236 -38.8909 110.36 -0.223537 2.72691 -0.118305 -0.442228 5.45429 -0.226326 -0.442221 5.45429 -0.226327 0.000541871 -25.2199 0.000243009 -0.0451389 -29.2413 -0.0299382 -8.19861 4.53129 -1.45364 -50.8024 -18.0921 -38.9883 30.1026 -14.3428 -79.1022 1.79036 7.76295 -6.01416 3.18055e-015 0 -3.18055e-015 -0 -3.18055e-015 -0 -8.56265e-007 6.0766e-007 -2.91703e-006 3.18055e-015 -3.18055e-015 -3.18055e-015 -0 -6.36111e-015 -0 -0 -3.18055e-015 -0 -8.56265e-007 6.0766e-007 -2.91703e-006 -0 -6.36111e-015 -0 -0 -3.18055e-015 -0 -8.56265e-007 6.0766e-007 -2.91703e-006 3.18055e-015 -3.18055e-015 -3.18055e-015 -0 -6.36111e-015 -0 -0 -3.18055e-015 -0 -8.56265e-007 6.0766e-007 -2.91703e-006 -0 -6.36111e-015 -0 -0 -3.18055e-015 -0 -8.56265e-007 6.0766e-007 -2.91703e-006 8.03673 4.54184 1.71107 51.1565 -17.5337 39.79 -30.7427 -15.6059 78.1149 -1.95816 7.86984 6.14875 -9.65838e-007 -5.46998e-007 -5.93065e-007 7.34777e-007 2.34047e-006 -7.27025e-007 7.20913e-007 -2.33158e-007 8.35407e-007 2.38542e-015 -7.95139e-016 -6.36111e-015 -9.65838e-007 -5.46998e-007 -5.93065e-007 7.34777e-007 2.34047e-006 -7.27025e-007 7.20913e-007 -2.33158e-007 8.35407e-007 -9.65838e-007 -5.46998e-007 -5.93065e-007 7.34777e-007 2.34047e-006 -7.27025e-007 7.20913e-007 -2.33158e-007 8.35407e-007 2.38542e-015 -7.95139e-016 -6.36111e-015 -9.65838e-007 -5.46998e-007 -5.93065e-007 7.34777e-007 2.34047e-006 -7.27025e-007 7.20913e-007 -2.33158e-007 8.35407e-007 -9.65838e-007 -5.46998e-007 -5.93065e-007 7.34777e-007 2.34047e-006 -7.27025e-007 7.20913e-007 -2.33158e-007 8.35407e-007 19.1926 -25.6104 32.3039 72.7139 74.5376 -82.8235 7.14956 20.7209 2.11158 -19.1808 -25.6097 -32.3175 -72.8206 74.5034 82.9422 -7.13376 20.6958 -2.12618 
31.9 5.85423 -11.453 117.657 -75.3715 -63.3827 -0.353207 3.95381 -0.157702 -0.697977 7.90848 -0.291953 -0.69798 7.90849 -0.291955 -3.56908e-005 -36.4263 -3.16855e-005 -0.0782896 -41.9141 -0.0504542 -11.8596 6.65107 -2.19008 -81.7358 -16.7348 -60.12 36.4434 -62.0756 -81.5339 3.16005 10.9939 -9.05249 4.41391e-032 7.95139e-016 -3.18055e-015 -2.98177e-016 3.97569e-016 -3.18055e-015 -9.93923e-017 3.97569e-016 -3.18055e-015 9.93923e-017 3.97569e-016 6.36111e-015 -1.76556e-031 7.95139e-016 1.27222e-014 -3.97569e-016 5.96354e-016 -6.36111e-015 -9.93923e-017 5.96354e-016 -0 -1.76556e-031 7.95139e-016 1.27222e-014 -3.97569e-016 5.96354e-016 -6.36111e-015 -9.93923e-017 5.96354e-016 -0 9.93923e-017 3.97569e-016 6.36111e-015 -1.76556e-031 7.95139e-016 1.27222e-014 -3.97569e-016 5.96354e-016 -6.36111e-015 -9.93923e-017 5.96354e-016 -0 -1.76556e-031 7.95139e-016 1.27222e-014 -3.97569e-016 5.96354e-016 -6.36111e-015 -9.93923e-017 5.96354e-016 -0 11.6065 6.66821 2.57729 81.9295 -16.1345 60.8531 -37.8441 -63.2926 80.2138 -3.41884 11.1387 9.25514 -2.20695e-032 3.97569e-016 3.18055e-015 -3.53742e-008 3.6044e-007 3.50933e-006 3.53742e-008 -3.6044e-007 -3.50933e-006 1.10348e-032 -1.98785e-016 3.18055e-015 1.59028e-015 1.98785e-016 1.27222e-014 -3.53742e-008 3.6044e-007 3.50933e-006 3.53742e-008 -3.6044e-007 -3.50933e-006 1.59028e-015 1.98785e-016 1.27222e-014 -3.53742e-008 3.6044e-007 3.50933e-006 3.53742e-008 -3.6044e-007 -3.50933e-006 1.10348e-032 -1.98785e-016 3.18055e-015 1.59028e-015 1.98785e-016 1.27222e-014 -3.53742e-008 3.6044e-007 3.50933e-006 3.53742e-008 -3.6044e-007 -3.50933e-006 1.59028e-015 1.98785e-016 1.27222e-014 -3.53742e-008 3.6044e-007 3.50933e-006 3.53742e-008 -3.6044e-007 -3.50933e-006 36.7786 -34.1666 52.7255 135.794 45.2831 -140.963 5.98081 31.7071 4.86735 -36.7554 -34.1382 -52.7382 -135.733 45.2419 140.902 -5.96175 31.6723 -4.88223 
31.8101 12.0441 -12.6677 -90.4034 -89.7353 89.3393 -0.323173 3.68115 -0.150207 -0.638635 7.36309 -0.280426 -0.638635 7.36312 -0.280425 1.64748e-006 -33.6193 9.4197e-007 -0.0688773 -38.0181 -0.0434785 -11.1567 6.36497 -2.19214 -74.7989 -17.7144 -55.5998 33.6707 -51.0313 -84.8474 2.98771 10.2887 -8.63614 6.51519e-007 -1.62881e-006 6.0555e-006 -5.90044e-007 1.12827e-006 1.30087e-007 3.74925e-007 -5.69346e-007 -2.11502e-007 9.93923e-016 -1.78906e-015 -3.18055e-015 6.51519e-007 -1.62881e-006 6.0555e-006 -5.90044e-007 1.12827e-006 1.30087e-007 3.74925e-007 -5.69346e-007 -2.11502e-007 6.51519e-007 -1.62881e-006 6.0555e-006 -5.90044e-007 1.12827e-006 1.30087e-007 3.74925e-007 -5.69346e-007 -2.11502e-007 9.93923e-016 -1.78906e-015 -3.18055e-015 6.51519e-007 -1.62881e-006 6.0555e-006 -5.90044e-007 1.12827e-006 1.30087e-007 3.74925e-007 -5.69346e-007 -2.11502e-007 6.51519e-007 -1.62881e-006 6.0555e-006 -5.90044e-007 1.12827e-006 1.30087e-007 3.74925e-007 -5.69346e-007 -2.11502e-007 10.9143 6.38686 2.57838 75.03 -17.1076 56.3424 -34.6388 -52.2616 83.8233 -3.22931 10.4307 8.81894 -2.04878e-007 -3.72594e-007 3.47761e-008 -2.04878e-007 -3.72594e-007 3.47761e-008 -2.04878e-007 -3.72594e-007 3.47761e-008 9.93923e-016 -5.96354e-016 3.18055e-015 -2.04878e-007 -3.72594e-007 3.47761e-008 -2.04878e-007 -3.72594e-007 3.47761e-008 -2.04878e-007 -3.72594e-007 3.47761e-008 -2.04878e-007 -3.72594e-007 3.47761e-008 -2.04878e-007 -3.72594e-007 3.47761e-008 -2.04878e-007 -3.72594e-007 3.47761e-008 9.93923e-016 -5.96354e-016 3.18055e-015 -2.04878e-007 -3.72594e-007 3.47761e-008 -2.04878e-007 -3.72594e-007 3.47761e-008 -2.04878e-007 -3.72594e-007 3.47761e-008 -2.04878e-007 -3.72594e-007 3.47761e-008 -2.04878e-007 -3.72594e-007 3.47761e-008 -2.04878e-007 -3.72594e-007 3.47761e-008 32.5306 -32.3537 47.7097 130.501 53.5752 -137.549 6.62702 29.2715 3.91086 -32.5111 -32.3292 -47.722 -130.443 53.5332 137.494 -6.60768 29.2368 -3.92539 
